<?xml version="1.0" encoding="UTF-8" standalone="no"?>
<!DOCTYPE svg PUBLIC "-//W3C//DTD SVG 1.1//EN" "http://www.w3.org/Graphics/SVG/1.1/DTD/svg11.dtd">
<svg width="100%" height="100%" viewBox="0 0 19 18" version="1.1" xmlns="http://www.w3.org/2000/svg" xmlns:xlink="http://www.w3.org/1999/xlink" xml:space="preserve" xmlns:serif="http://www.serif.com/" style="fill-rule:evenodd;clip-rule:evenodd;stroke-linejoin:round;stroke-miterlimit:2;">
    <g transform="matrix(1,0,0,1,-1450,-387)">
        <path id="Shape-1" serif:id="Shape 1" d="M1467.02,394.594L1467.02,394.594L1460.41,394.594L1460.41,387.997C1460.41,387.454 1459.97,387 1459.42,387L1458.58,387C1458.04,387 1457.59,387.454 1457.59,387.997L1457.59,394.594L1450.98,394.594C1450.44,394.594 1450,395.033 1450,395.576L1450,396.426C1450,396.969 1450.44,397.406 1450.98,397.406L1457.59,397.406L1457.59,404.027C1457.59,404.57 1458.04,405 1458.58,405L1459.42,405C1459.97,405 1460.41,404.569 1460.41,404.027L1460.41,397.406L1467.02,397.406C1467.56,397.406 1468,396.969 1468,396.426L1468,395.576C1468,395.033 1467.56,394.594 1467.02,394.594Z" style="fill:white;fill-rule:nonzero;"/>
    </g>
</svg>
