<?xml version="1.0" encoding="UTF-8" standalone="no"?>
<!DOCTYPE svg PUBLIC "-//W3C//DTD SVG 1.1//EN" "http://www.w3.org/Graphics/SVG/1.1/DTD/svg11.dtd">
<svg width="100%" height="100%" viewBox="0 0 22 22" version="1.1" xmlns="http://www.w3.org/2000/svg" xmlns:xlink="http://www.w3.org/1999/xlink" xml:space="preserve" xmlns:serif="http://www.serif.com/" style="fill-rule:evenodd;clip-rule:evenodd;stroke-linejoin:round;stroke-miterlimit:2;">
    <g id="Forma-1" serif:id="Forma 1" transform="matrix(1,0,0,1,-19.9777,-411.517)">
        <path d="M39.287,414C39.681,414.001 40,414.324 40,414.722L40,427.749C40,429.528 38.57,430.976 36.814,430.976L25.044,430.976C24.928,430.992 24.808,431 24.687,431C23.205,431 22,429.779 22,428.279L22,424.258C22,422.758 23.205,421.537 24.687,421.537L25.947,421.537L25.947,414.722C25.947,414.324 26.266,414.001 26.66,414L39.287,414ZM24.931,429.531C25.51,429.415 25.947,428.897 25.947,428.279L25.947,422.981L24.687,422.981C23.992,422.981 23.427,423.554 23.427,424.258L23.427,428.279C23.427,428.982 23.992,429.555 24.687,429.555L24.687,429.531L24.931,429.531ZM36.814,429.531C37.768,429.53 38.573,428.715 38.573,427.749L38.573,415.445L27.374,415.445L27.374,428.279C27.374,428.73 27.265,429.156 27.072,429.531L36.814,429.531ZM34.341,425.293C34.735,425.294 35.054,425.617 35.054,426.016C35.054,426.414 34.736,426.737 34.341,426.738L29.87,426.738C29.476,426.738 29.157,426.415 29.157,426.016C29.157,425.617 29.476,425.294 29.87,425.293L34.341,425.293ZM36.053,422.018C36.447,422.019 36.766,422.342 36.766,422.741C36.766,423.139 36.447,423.462 36.053,423.463L29.87,423.463C29.476,423.463 29.157,423.14 29.157,422.741C29.157,422.342 29.476,422.019 29.87,422.018L36.053,422.018ZM34.341,418.527C34.735,418.528 35.054,418.851 35.054,419.249C35.054,419.648 34.736,419.971 34.341,419.972L29.87,419.972C29.476,419.972 29.157,419.648 29.157,419.249C29.157,418.851 29.476,418.528 29.87,418.527L34.341,418.527Z" style="fill:white;"/>
    </g>
</svg>
