<?xml version="1.0" encoding="UTF-8" standalone="no"?>
<!DOCTYPE svg PUBLIC "-//W3C//DTD SVG 1.1//EN" "http://www.w3.org/Graphics/SVG/1.1/DTD/svg11.dtd">
<svg width="100%" height="100%" viewBox="0 0 18 18" version="1.1" xmlns="http://www.w3.org/2000/svg" xmlns:xlink="http://www.w3.org/1999/xlink" xml:space="preserve" xmlns:serif="http://www.serif.com/" style="fill-rule:evenodd;clip-rule:evenodd;stroke-linejoin:round;stroke-miterlimit:2;">
    <g id="Forma-1" serif:id="Forma 1" transform="matrix(1,0,0,1,-1266,-126.992)">
        <path d="M1282.57,130.211L1275.25,127.044C1275.07,126.965 1274.86,126.965 1274.67,127.045L1267.42,130.212C1267.17,130.325 1267,130.577 1267,130.855L1267,136.415C1267,138.516 1267.84,140.663 1269.31,142.307C1270.05,143.134 1270.9,143.788 1271.85,144.252C1272.85,144.748 1273.91,145 1275,145C1276.52,145 1278,144.515 1279.28,143.598C1279.6,143.37 1279.67,142.93 1279.43,142.615C1279.2,142.301 1278.76,142.232 1278.44,142.46C1277.4,143.201 1276.22,143.592 1275,143.592C1271.56,143.592 1268.43,140.171 1268.43,136.415L1268.43,131.313L1274.97,128.458L1281.57,131.315L1281.57,136.415C1281.57,137.71 1281.19,139.022 1280.48,140.207C1280.28,140.541 1280.39,140.973 1280.73,141.171C1281.07,141.37 1281.51,141.26 1281.71,140.926C1282.55,139.523 1283,137.963 1283,136.415L1283,130.855C1283,130.576 1282.83,130.323 1282.57,130.211ZM1278.41,132.527L1273.98,137.979L1271.5,135.626C1271.21,135.357 1270.76,135.365 1270.49,135.645C1270.21,135.925 1270.22,136.371 1270.51,136.64L1273.02,139.026C1273.02,139.027 1273.02,139.028 1273.03,139.029C1273.29,139.273 1273.62,139.405 1273.98,139.405C1274,139.405 1274.02,139.405 1274.04,139.404C1274.42,139.389 1274.76,139.228 1275.02,138.95C1275.03,138.94 1275.04,138.93 1275.04,138.92L1279.52,133.406C1279.77,133.103 1279.72,132.66 1279.41,132.417C1279.1,132.174 1278.65,132.223 1278.41,132.527Z" style="fill:rgb(103,103,103);"/>
    </g>
</svg>
