<?xml version="1.0" encoding="UTF-8" standalone="no"?>
<!DOCTYPE svg PUBLIC "-//W3C//DTD SVG 1.1//EN" "http://www.w3.org/Graphics/SVG/1.1/DTD/svg11.dtd">
<svg width="100%" height="100%" viewBox="0 0 19 19" version="1.1" xmlns="http://www.w3.org/2000/svg" xmlns:xlink="http://www.w3.org/1999/xlink" xml:space="preserve" xmlns:serif="http://www.serif.com/" style="fill-rule:evenodd;clip-rule:evenodd;stroke-linejoin:round;stroke-miterlimit:2;">
    <g id="Forma-1" serif:id="Forma 1" transform="matrix(0.0351514,0,0,0.0351514,0.553294,0.427837)">
        <path d="M511.237,438.722C508.986,427.909 498.396,420.968 487.577,423.219C476.762,425.47 469.82,436.062 472.072,446.875C473.369,453.104 471.824,459.488 467.835,464.394C465.525,467.235 460.373,472 451.834,472L61.166,472C52.627,472 47.475,467.234 45.165,464.394C41.175,459.489 39.631,453.104 40.928,446.875C61.687,347.18 149.634,274.354 251.197,271.898C252.957,271.966 254.724,272 256.5,272C258.282,272 260.057,271.965 261.823,271.897C333.365,273.613 399.49,309.844 439.534,369.557C445.686,378.732 458.111,381.182 467.288,375.031C476.464,368.88 478.915,356.456 472.762,347.282C439.94,298.338 392.281,262.748 337.939,244.865C371.054,220.036 392.519,180.477 392.519,136C392.519,61.01 331.501,0 256.5,0C181.499,0 120.481,61.01 120.481,136C120.481,180.504 141.972,220.084 175.122,244.911C144.75,254.909 116.251,270.466 91.307,290.98C45.569,328.597 13.767,381.066 1.763,438.722C-2,456.789 2.508,475.345 14.127,489.631C25.69,503.847 42.835,512 61.166,512L451.833,512C470.165,512 487.31,503.847 498.872,489.631C510.493,475.345 515,456.789 511.237,438.722ZM160.487,136C160.487,83.065 203.558,40 256.5,40C309.442,40 352.513,83.065 352.513,136C352.513,187.305 312.053,229.339 261.36,231.878C259.742,231.848 258.122,231.833 256.5,231.833C254.886,231.833 253.272,231.849 251.659,231.879C200.957,229.35 160.487,187.312 160.487,136Z" style="fill:rgb(61,66,72);fill-rule:nonzero;"/>
    </g>
</svg>
