<?xml version="1.0" encoding="UTF-8" standalone="no"?>
<!DOCTYPE svg PUBLIC "-//W3C//DTD SVG 1.1//EN" "http://www.w3.org/Graphics/SVG/1.1/DTD/svg11.dtd">
<svg width="100%" height="100%" viewBox="0 0 22 22" version="1.1" xmlns="http://www.w3.org/2000/svg" xmlns:xlink="http://www.w3.org/1999/xlink" xml:space="preserve" xmlns:serif="http://www.serif.com/" style="fill-rule:evenodd;clip-rule:evenodd;stroke-linejoin:round;stroke-miterlimit:2;">
    <g id="Forma-1" serif:id="Forma 1" transform="matrix(1,0,0,1,-19,-82.9999)">
        <path d="M26.484,94.703C28.039,94.707 29.297,95.967 29.297,97.516L29.297,100.187C29.297,101.738 28.035,103 26.484,103L23.812,103C22.262,103 21,101.738 21,100.187L21,97.516C21,95.967 22.258,94.707 23.812,94.703L26.484,94.703ZM36.187,94.703C37.309,94.706 38.318,95.367 38.765,96.39C38.921,96.745 38.759,97.16 38.403,97.315C38.047,97.471 37.632,97.309 37.477,96.953C37.253,96.44 36.747,96.109 36.187,96.109L33.516,96.109C32.74,96.109 32.109,96.74 32.109,97.516L32.109,100.187C32.109,100.963 32.74,101.594 33.516,101.594L36.187,101.594C36.967,101.589 37.594,100.96 37.594,100.187C37.594,99.799 37.909,99.484 38.297,99.484C38.685,99.484 39,99.799 39,100.187C39,101.738 37.738,103 36.187,103L33.516,103C31.965,103 30.703,101.738 30.703,100.187L30.703,97.516C30.703,95.967 31.961,94.707 33.516,94.703L36.187,94.703ZM26.484,101.594C27.264,101.589 27.891,100.96 27.891,100.187L27.891,97.516C27.891,96.74 27.26,96.109 26.484,96.109L23.812,96.109C23.037,96.109 22.406,96.74 22.406,97.516L22.406,100.187C22.406,100.963 23.037,101.594 23.812,101.594L26.484,101.594ZM36.187,85C37.742,85.003 39,86.264 39,87.812L39,90.484C39,92.035 37.738,93.297 36.187,93.297L33.516,93.297C31.965,93.297 30.703,92.035 30.703,90.484L30.703,87.812C30.703,86.264 31.961,85.003 33.516,85L36.187,85ZM26.484,85C28.039,85.003 29.297,86.264 29.297,87.812L29.297,90.484C29.297,92.035 28.035,93.297 26.484,93.297L23.812,93.297C22.262,93.297 21,92.035 21,90.484L21,87.812C21,86.264 22.258,85.003 23.812,85L26.484,85ZM36.187,91.891C36.967,91.886 37.594,91.257 37.594,90.484L37.594,87.812C37.594,87.037 36.963,86.406 36.187,86.406L33.516,86.406C32.74,86.406 32.109,87.037 32.109,87.812L32.109,90.484C32.109,91.26 32.74,91.891 33.516,91.891L36.187,91.891ZM26.484,91.891C27.264,91.886 27.891,91.257 27.891,90.484L27.891,87.812C27.891,87.037 27.26,86.406 26.484,86.406L23.812,86.406C23.037,86.406 22.406,87.037 22.406,87.812L22.406,90.484C22.406,91.26 23.037,91.891 23.812,91.891L26.484,91.891Z" style="fill:white;"/>
    </g>
</svg>
