<?xml version="1.0" encoding="UTF-8" standalone="no"?>
<!DOCTYPE svg PUBLIC "-//W3C//DTD SVG 1.1//EN" "http://www.w3.org/Graphics/SVG/1.1/DTD/svg11.dtd">
<svg width="100%" height="100%" viewBox="0 0 24 24" version="1.1" xmlns="http://www.w3.org/2000/svg" xmlns:xlink="http://www.w3.org/1999/xlink" xml:space="preserve" xmlns:serif="http://www.serif.com/" style="fill-rule:evenodd;clip-rule:evenodd;stroke-linejoin:round;stroke-miterlimit:1.41421;">
    <g id="Forma-1" serif:id="Forma 1" transform="matrix(1,0,0,1,-1461,-158)">
        <path d="M1470.01,161.636C1470.18,160.154 1471.46,159 1473,159C1474.54,159 1475.82,160.154 1475.99,161.636L1479.46,161.636C1480.86,161.636 1482,162.763 1482,164.149L1482,164.278C1482,165.337 1481.33,166.244 1480.39,166.613L1480.39,178.487C1480.39,179.872 1479.25,181 1477.85,181L1468.15,181C1466.75,181 1465.61,179.872 1465.61,178.487L1465.61,166.613C1464.67,166.244 1464,165.337 1464,164.278L1464,164.149C1464,162.764 1465.14,161.636 1466.54,161.636L1470.01,161.636ZM1477.85,179.808C1478.59,179.808 1479.19,179.215 1479.19,178.487L1479.19,166.792L1466.81,166.792L1466.81,178.487C1466.81,179.215 1467.41,179.808 1468.15,179.808L1477.85,179.808ZM1473,178.284C1473.33,178.284 1473.6,178.017 1473.6,177.688L1473.6,170.977C1473.6,170.648 1473.33,170.381 1473,170.381C1472.67,170.381 1472.4,170.648 1472.4,170.977L1472.4,177.688C1472.4,178.017 1472.67,178.284 1473,178.284ZM1476.23,178.284C1476.57,178.284 1476.84,178.017 1476.84,177.688L1476.84,170.977C1476.84,170.648 1476.57,170.381 1476.23,170.381C1475.9,170.381 1475.63,170.648 1475.63,170.977L1475.63,177.688C1475.63,178.017 1475.9,178.284 1476.23,178.284ZM1469.77,178.284C1470.1,178.284 1470.37,178.017 1470.37,177.688L1470.37,170.977C1470.37,170.648 1470.1,170.381 1469.77,170.381C1469.43,170.381 1469.16,170.648 1469.16,170.977L1469.16,177.688C1469.16,178.017 1469.43,178.284 1469.77,178.284ZM1479.46,165.6C1480.19,165.599 1480.79,165.007 1480.79,164.278L1480.79,164.149C1480.79,163.421 1480.19,162.828 1479.46,162.828L1466.54,162.828C1465.81,162.828 1465.21,163.421 1465.21,164.149L1465.21,164.278C1465.21,165.007 1465.81,165.6 1466.54,165.6L1479.46,165.6ZM1474.77,161.636C1474.61,160.814 1473.88,160.192 1473,160.192C1472.12,160.192 1471.39,160.814 1471.23,161.636L1474.77,161.636Z" style="fill:rgb(151,151,151);"/>
    </g>
</svg>
