<?xml version="1.0" encoding="UTF-8" standalone="no"?>
<!DOCTYPE svg PUBLIC "-//W3C//DTD SVG 1.1//EN" "http://www.w3.org/Graphics/SVG/1.1/DTD/svg11.dtd">
<svg width="100%" height="100%" viewBox="0 0 32 32" version="1.1" xmlns="http://www.w3.org/2000/svg" xmlns:xlink="http://www.w3.org/1999/xlink" xml:space="preserve" xmlns:serif="http://www.serif.com/" style="fill-rule:evenodd;clip-rule:evenodd;stroke-linejoin:round;stroke-miterlimit:2;">
    <g id="Group-3" serif:id="Group 3" transform="matrix(1,0,0,1,-1469,-540)">
        <path id="Ellipse-4" serif:id="Ellipse 4" d="M1477,554C1478.11,554 1479,554.895 1479,556C1479,557.105 1478.11,558 1477,558C1475.89,558 1475,557.105 1475,556C1475,554.895 1475.89,554 1477,554Z" style="fill:rgb(97,109,121);"/>
        <path id="Ellipse-4-copy" serif:id="Ellipse 4 copy" d="M1485,554C1486.11,554 1487,554.895 1487,556C1487,557.105 1486.11,558 1485,558C1483.89,558 1483,557.105 1483,556C1483,554.895 1483.89,554 1485,554Z" style="fill:rgb(97,109,121);"/>
        <path id="Ellipse-4-copy-2" serif:id="Ellipse 4 copy 2" d="M1493,554C1494.11,554 1495,554.895 1495,556C1495,557.105 1494.11,558 1493,558C1491.89,558 1491,557.105 1491,556C1491,554.895 1491.89,554 1493,554Z" style="fill:rgb(97,109,121);"/>
    </g>
</svg>
