<?xml version="1.0" encoding="UTF-8" standalone="no"?>
<!DOCTYPE svg PUBLIC "-//W3C//DTD SVG 1.1//EN" "http://www.w3.org/Graphics/SVG/1.1/DTD/svg11.dtd">
<svg width="100%" height="100%" viewBox="0 0 24 24" version="1.1" xmlns="http://www.w3.org/2000/svg" xmlns:xlink="http://www.w3.org/1999/xlink" xml:space="preserve" xmlns:serif="http://www.serif.com/" style="fill-rule:evenodd;clip-rule:evenodd;stroke-linejoin:round;stroke-miterlimit:1.41421;">
    <g id="Forma-1" serif:id="Forma 1" transform="matrix(1,0,0,1,-1424.07,-159.07)">
        <path d="M1428.19,177.82L1428.19,164.32C1428.19,163.7 1428.7,163.195 1429.32,163.195L1440.57,163.195C1441.19,163.195 1441.69,163.7 1441.69,164.32L1441.69,170.934L1442.82,169.809L1442.82,164.32C1442.82,163.078 1441.81,162.07 1440.57,162.07L1429.32,162.07C1428.08,162.07 1427.07,163.078 1427.07,164.32L1427.07,177.82C1427.07,179.063 1428.08,180.07 1429.32,180.07L1435.51,180.07L1435.51,178.945L1429.32,178.945C1428.7,178.945 1428.19,178.441 1428.19,177.82ZM1439.44,165.445L1430.44,165.445L1430.44,166.57L1439.44,166.57L1439.44,165.445ZM1439.44,167.695L1430.44,167.695L1430.44,168.82L1439.44,168.82L1439.44,167.695ZM1439.44,169.945L1430.44,169.945L1430.44,171.07L1439.44,171.07L1439.44,169.945ZM1430.44,173.32L1434.94,173.32L1434.94,172.195L1430.44,172.195L1430.44,173.32ZM1444.74,172.195L1443.94,171.4C1443.73,171.18 1443.44,171.07 1443.15,171.07C1442.86,171.07 1442.57,171.18 1442.35,171.4L1437.53,176.229C1437.31,176.449 1436.63,177.299 1436.63,177.587L1436.07,180.07L1438.55,179.508C1438.55,179.508 1439.69,178.835 1439.91,178.616L1444.74,173.786C1445.18,173.347 1445.18,172.634 1444.74,172.195ZM1439.51,178.217C1439.45,178.277 1439.23,178.426 1438.96,178.598L1437.5,177.14C1437.65,176.935 1437.82,176.729 1437.92,176.627L1441.56,172.991L1443.15,174.582L1439.51,178.217Z" style="fill:rgb(151,151,151);fill-rule:nonzero;"/>
    </g>
</svg>
