<?xml version="1.0" encoding="UTF-8" standalone="no"?>
<!DOCTYPE svg PUBLIC "-//W3C//DTD SVG 1.1//EN" "http://www.w3.org/Graphics/SVG/1.1/DTD/svg11.dtd">
<svg width="100%" height="100%" viewBox="0 0 24 24" version="1.1" xmlns="http://www.w3.org/2000/svg" xmlns:xlink="http://www.w3.org/1999/xlink" xml:space="preserve" xmlns:serif="http://www.serif.com/" style="fill-rule:evenodd;clip-rule:evenodd;stroke-linejoin:round;stroke-miterlimit:2;">
    <g id="Shape-1" serif:id="Shape 1" transform="matrix(1.22247,0,0,1.22247,-1687.26,-912.204)">
        <path d="M1396.82,749.16C1398.04,749.165 1399.02,750.154 1399.02,751.365L1399.02,760.661C1399.02,761.875 1398.03,762.862 1396.82,762.862L1383.22,762.862C1382.01,762.862 1381.02,761.875 1381.02,760.661L1381.02,751.362C1381.02,750.15 1382,749.165 1383.22,749.16L1396.82,749.16ZM1398.01,760.661L1398.01,751.365C1398.01,750.706 1397.48,750.17 1396.82,750.17L1383.22,750.17C1382.56,750.17 1382.03,750.706 1382.03,751.365L1382.03,760.661C1382.03,761.32 1382.56,761.857 1383.22,761.857L1396.82,761.857C1397.48,761.852 1398.01,761.322 1398.02,760.661L1398.01,760.661ZM1392.37,755.896L1396.77,751.947C1396.98,751.76 1397,751.444 1396.81,751.235C1396.62,751.03 1396.31,751.012 1396.1,751.198L1390.03,756.648L1388.85,755.59C1388.84,755.586 1388.84,755.583 1388.84,755.579C1388.81,755.553 1388.79,755.531 1388.76,755.508L1383.94,751.194C1383.73,751.008 1383.41,751.026 1383.23,751.235C1383.04,751.444 1383.06,751.76 1383.27,751.947L1387.72,755.929L1383.29,760.083C1383.09,760.273 1383.07,760.59 1383.26,760.795C1383.37,760.899 1383.5,760.955 1383.63,760.955C1383.76,760.955 1383.88,760.91 1383.98,760.821L1388.48,756.607L1389.7,757.699C1389.8,757.785 1389.91,757.826 1390.03,757.826C1390.15,757.826 1390.28,757.781 1390.37,757.695L1391.62,756.57L1396.1,760.825C1396.2,760.918 1396.32,760.962 1396.45,760.962C1396.58,760.962 1396.71,760.91 1396.81,760.806C1397,760.605 1396.99,760.284 1396.79,760.094L1392.37,755.896Z" style="fill:rgb(151,151,151);"/>
    </g>
</svg>
