<?xml version="1.0" encoding="UTF-8" standalone="no"?>
<!DOCTYPE svg PUBLIC "-//W3C//DTD SVG 1.1//EN" "http://www.w3.org/Graphics/SVG/1.1/DTD/svg11.dtd">
<svg width="100%" height="100%" viewBox="0 0 16 16" version="1.1" xmlns="http://www.w3.org/2000/svg" xmlns:xlink="http://www.w3.org/1999/xlink" xml:space="preserve" xmlns:serif="http://www.serif.com/" style="fill-rule:evenodd;clip-rule:evenodd;stroke-linejoin:round;stroke-miterlimit:1.41421;">
    <g id="Shape-1" serif:id="Shape 1" transform="matrix(1,0,0,1,-1524,-16.0001)">
        <path d="M1532,23.201L1538.03,17.166C1538.26,16.945 1538.61,16.945 1538.83,17.166C1539.06,17.387 1539.06,17.745 1538.83,17.966L1532.8,24L1538.83,30.035C1539.06,30.255 1539.06,30.614 1538.83,30.834C1538.72,30.945 1538.58,31 1538.43,31C1538.29,31 1538.14,30.945 1538.03,30.834L1532,24.8L1525.97,30.834C1525.86,30.945 1525.71,31 1525.57,31C1525.42,31 1525.28,30.945 1525.17,30.834C1524.94,30.613 1524.94,30.255 1525.17,30.035L1531.2,24L1525.17,17.966C1524.94,17.745 1524.94,17.387 1525.17,17.166C1525.39,16.945 1525.75,16.945 1525.97,17.166L1532,23.201Z" style="fill:rgb(167,167,167);"/>
    </g>
</svg>
