<?xml version="1.0" encoding="UTF-8" standalone="no"?>
<!DOCTYPE svg PUBLIC "-//W3C//DTD SVG 1.1//EN" "http://www.w3.org/Graphics/SVG/1.1/DTD/svg11.dtd">
<svg width="100%" height="100%" viewBox="0 0 16 17" version="1.1" xmlns="http://www.w3.org/2000/svg" xmlns:xlink="http://www.w3.org/1999/xlink" xml:space="preserve" xmlns:serif="http://www.serif.com/" style="fill-rule:evenodd;clip-rule:evenodd;stroke-linejoin:round;stroke-miterlimit:1.41421;">
    <g transform="matrix(1,0,0,1,-478.013,-844.013)">
        <path id="Forma-1" serif:id="Forma 1" d="M486.013,844.013C483.28,844.013 480.813,845.413 479.346,847.613L479.346,844.68L478.013,844.68L478.013,850.013L483.346,850.013L483.346,848.68L480.28,848.68C481.48,846.613 483.613,845.346 486.013,845.346C489.68,845.346 492.68,848.346 492.68,852.013C492.68,855.68 489.68,858.68 486.013,858.68C482.813,858.68 480.013,856.413 479.48,853.213C479.413,852.88 479.08,852.613 478.68,852.68C478.346,852.746 478.08,853.08 478.146,853.48C478.813,857.28 482.146,860.013 486.013,860.013C490.413,860.013 494.013,856.413 494.013,852.013C494.013,847.613 490.413,844.013 486.013,844.013Z" fill="rgb(129,129,129)"/>
    </g>
</svg>
