<?xml version="1.0" encoding="UTF-8" standalone="no"?>
<!DOCTYPE svg PUBLIC "-//W3C//DTD SVG 1.1//EN" "http://www.w3.org/Graphics/SVG/1.1/DTD/svg11.dtd">
<svg width="100%" height="100%" viewBox="0 0 14 14" version="1.1" xmlns="http://www.w3.org/2000/svg" xmlns:xlink="http://www.w3.org/1999/xlink" xml:space="preserve" xmlns:serif="http://www.serif.com/" style="fill-rule:evenodd;clip-rule:evenodd;stroke-linejoin:round;stroke-miterlimit:1.41421;">
    <g transform="matrix(1,0,0,1,-1147.82,-405.818)">
        <path id="Forma-1" serif:id="Forma 1" d="M1161.64,418.816L1158.28,415.453C1159.11,414.436 1159.61,413.134 1159.61,411.715C1159.61,408.459 1156.97,405.818 1153.71,405.818C1150.46,405.818 1147.82,408.459 1147.82,411.715C1147.82,414.97 1150.46,417.611 1153.71,417.611C1155.13,417.611 1156.43,417.112 1157.45,416.278L1160.81,419.639C1161.04,419.867 1161.41,419.867 1161.64,419.639C1161.87,419.413 1161.87,419.042 1161.64,418.816ZM1153.71,416.438C1151.11,416.438 1148.99,414.319 1148.99,411.715C1148.99,409.11 1151.11,406.989 1153.71,406.989C1156.32,406.989 1158.44,409.11 1158.44,411.715C1158.44,414.319 1156.32,416.438 1153.71,416.438Z" style="fill:#FFF;fill-rule:nonzero;"/>
    </g>
</svg>
