<?xml version="1.0" encoding="UTF-8" standalone="no"?>
<!DOCTYPE svg PUBLIC "-//W3C//DTD SVG 1.1//EN" "http://www.w3.org/Graphics/SVG/1.1/DTD/svg11.dtd">
<svg width="100%" height="100%" viewBox="0 0 20 20" version="1.1" xmlns="http://www.w3.org/2000/svg" xmlns:xlink="http://www.w3.org/1999/xlink" xml:space="preserve" xmlns:serif="http://www.serif.com/" style="fill-rule:evenodd;clip-rule:evenodd;stroke-linejoin:round;stroke-miterlimit:1.41421;">
    <g id="Delete" transform="matrix(1,0,0,1,-1301.5,-699)">
        <path d="M1313.2,700.991C1313.48,700.991 1313.76,701.082 1314.04,701.262C1314.32,701.443 1314.51,701.662 1314.61,701.919L1315.36,703.661L1318.64,703.661C1318.74,703.661 1318.82,703.692 1318.89,703.754C1318.95,703.817 1318.98,703.897 1318.98,703.994L1318.98,704.662C1318.98,704.759 1318.95,704.839 1318.89,704.902C1318.82,704.964 1318.74,704.995 1318.64,704.995L1317.62,704.995L1317.62,714.882C1317.62,715.459 1317.45,715.957 1317.12,716.378C1316.79,716.799 1316.39,717.009 1315.92,717.009L1307.08,717.009C1306.61,717.009 1306.21,716.806 1305.88,716.399C1305.55,715.992 1305.38,715.5 1305.38,714.923L1305.38,704.995L1304.36,704.995C1304.26,704.995 1304.18,704.964 1304.11,704.902C1304.05,704.839 1304.02,704.759 1304.02,704.662L1304.02,703.994C1304.02,703.897 1304.05,703.817 1304.11,703.754C1304.18,703.692 1304.26,703.661 1304.36,703.661L1307.64,703.661L1308.39,701.919C1308.49,701.662 1308.68,701.443 1308.96,701.262C1309.24,701.082 1309.52,700.991 1309.8,700.991L1313.2,700.991ZM1315.92,715.674C1315.94,715.673 1315.98,715.644 1316.03,715.586C1316.09,715.526 1316.14,715.433 1316.19,715.304C1316.24,715.175 1316.26,715.035 1316.26,714.882L1316.26,704.995L1306.74,704.995L1306.74,714.882C1306.74,715.034 1306.76,715.175 1306.81,715.304C1306.86,715.433 1306.91,715.526 1306.97,715.586C1307.02,715.645 1307.06,715.674 1307.08,715.674L1315.92,715.674ZM1311.84,706.998C1311.94,706.998 1312.02,707.029 1312.08,707.091C1312.15,707.154 1312.18,707.234 1312.18,707.331L1312.18,713.338C1312.18,713.436 1312.15,713.515 1312.08,713.578C1312.02,713.641 1311.94,713.672 1311.84,713.672L1311.16,713.672C1311.06,713.672 1310.98,713.641 1310.91,713.578C1310.85,713.515 1310.82,713.436 1310.82,713.338L1310.82,707.331C1310.82,707.234 1310.85,707.154 1310.91,707.091C1310.98,707.029 1311.06,706.998 1311.16,706.998L1311.84,706.998ZM1314.56,706.998C1314.66,706.998 1314.74,707.029 1314.81,707.091C1314.87,707.154 1314.9,707.234 1314.9,707.331L1314.9,713.338C1314.9,713.436 1314.87,713.515 1314.81,713.578C1314.74,713.641 1314.66,713.672 1314.56,713.672L1313.88,713.672C1313.78,713.672 1313.7,713.641 1313.64,713.578C1313.57,713.515 1313.54,713.436 1313.54,713.338L1313.54,707.331C1313.54,707.234 1313.57,707.154 1313.64,707.091C1313.7,707.029 1313.78,706.998 1313.88,706.998L1314.56,706.998ZM1309.12,706.998C1309.22,706.998 1309.3,707.029 1309.36,707.091C1309.43,707.154 1309.46,707.234 1309.46,707.331L1309.46,713.338C1309.46,713.436 1309.43,713.515 1309.36,713.578C1309.3,713.641 1309.22,713.672 1309.12,713.672L1308.44,713.672C1308.34,713.672 1308.26,713.641 1308.19,713.578C1308.13,713.515 1308.1,713.436 1308.1,713.338L1308.1,707.331C1308.1,707.234 1308.13,707.154 1308.19,707.091C1308.26,707.029 1308.34,706.998 1308.44,706.998L1309.12,706.998ZM1313.88,703.66L1313.37,702.44C1313.32,702.378 1313.26,702.34 1313.19,702.326L1309.82,702.326C1309.75,702.339 1309.69,702.378 1309.64,702.44L1309.12,703.66L1313.88,703.66Z" style="fill:rgb(129,129,129);"/>
    </g>
</svg>
