<?xml version="1.0" encoding="UTF-8" standalone="no"?>
<!DOCTYPE svg PUBLIC "-//W3C//DTD SVG 1.1//EN" "http://www.w3.org/Graphics/SVG/1.1/DTD/svg11.dtd">
<svg width="100%" height="100%" viewBox="0 0 20 20" version="1.1" xmlns="http://www.w3.org/2000/svg" xmlns:xlink="http://www.w3.org/1999/xlink" xml:space="preserve" xmlns:serif="http://www.serif.com/" style="fill-rule:evenodd;clip-rule:evenodd;stroke-linejoin:round;stroke-miterlimit:1.41421;">
    <g id="Edit" transform="matrix(1,0,0,1,-1300.99,-667)">
        <path d="M1318.82,673.202L1316.8,671.187L1316.8,671.185L1314.79,669.17C1314.68,669.061 1314.53,669 1314.38,669C1314.22,669 1314.07,669.061 1313.96,669.17L1304.2,678.929C1304.12,679.009 1304.07,679.11 1304.04,679.221L1302.99,684.303C1302.95,684.494 1303.01,684.692 1303.15,684.83C1303.26,684.94 1303.41,685 1303.56,685C1303.6,685 1303.64,684.996 1303.68,684.988L1308.76,683.939C1308.87,683.916 1308.98,683.861 1309.06,683.781L1318.82,674.022C1319.05,673.796 1319.05,673.429 1318.82,673.202ZM1304.96,680.509L1307.48,683.021L1304.31,683.674L1304.96,680.509ZM1308.64,682.551L1305.43,679.339L1314.38,670.4L1315.57,671.596L1310.16,677.005C1309.93,677.232 1309.93,677.599 1310.16,677.825C1310.27,677.938 1310.42,677.995 1310.57,677.995C1310.72,677.995 1310.87,677.938 1310.98,677.825L1316.39,672.416L1317.59,673.612L1308.64,682.551Z" style="fill:rgb(129,129,129);fill-rule:nonzero;"/>
    </g>
</svg>
