<?xml version="1.0" encoding="UTF-8" standalone="no"?>
<!DOCTYPE svg PUBLIC "-//W3C//DTD SVG 1.1//EN" "http://www.w3.org/Graphics/SVG/1.1/DTD/svg11.dtd">
<svg width="100%" height="100%" viewBox="0 0 26 26" version="1.1" xmlns="http://www.w3.org/2000/svg" xmlns:xlink="http://www.w3.org/1999/xlink" xml:space="preserve" xmlns:serif="http://www.serif.com/" style="fill-rule:evenodd;clip-rule:evenodd;stroke-linejoin:round;stroke-miterlimit:2;">
    <g transform="matrix(0.0507813,0,0,0.0507813,0,0)">
        <path d="M456,396L436,396L436,256C436,174.82 381.977,106.027 307.992,83.668C311.832,75.922 314,67.211 314,58C314,26.02 287.98,0 256,0C224.02,0 198,26.02 198,58C198,67.211 200.168,75.922 204.008,83.668C130.023,106.027 76,174.82 76,256L76,396L56,396C44.953,396 36,404.953 36,416C36,427.047 44.953,436 56,436L158.102,436C167.328,479.367 205.922,512 252,512L260,512C306.078,512 344.672,479.367 353.898,436L456,436C467.047,436 476,427.047 476,416C476,404.953 467.047,396 456,396ZM238,58C238,48.074 246.074,40 256,40C265.926,40 274,48.074 274,58C274,67.926 265.926,76 256,76C246.074,76 238,67.926 238,58ZM260,472L252,472C228.164,472 207.758,457.031 199.691,436L312.309,436C304.242,457.031 283.836,472 260,472ZM116,396L116,256C116,178.805 178.805,116 256,116C333.195,116 396,178.805 396,256L396,396L116,396Z" style="fill:rgb(102,102,102);fill-rule:nonzero;"/>
    </g>
</svg>
