<?xml version="1.0" encoding="UTF-8" standalone="no"?>
<!DOCTYPE svg PUBLIC "-//W3C//DTD SVG 1.1//EN" "http://www.w3.org/Graphics/SVG/1.1/DTD/svg11.dtd">
<svg width="100%" height="100%" viewBox="0 0 26 26" version="1.1" xmlns="http://www.w3.org/2000/svg" xmlns:xlink="http://www.w3.org/1999/xlink" xml:space="preserve" xmlns:serif="http://www.serif.com/" style="fill-rule:evenodd;clip-rule:evenodd;stroke-linejoin:round;stroke-miterlimit:2;">
    <g transform="matrix(0.0507812,0,0,0.0507812,3.19886e-06,-1.45733e-05)">
        <path d="M504.399,185.065C497.638,176.583 487.495,171.717 476.569,171.717L377.965,171.717L324.496,49.284C321.181,41.693 312.339,38.224 304.747,41.541C297.155,44.856 293.688,53.699 297.004,61.291L345.229,171.718L166.771,171.718L214.996,61.291C218.311,53.699 214.845,44.857 207.253,41.541C199.662,38.224 190.819,41.691 187.504,49.284L134.035,171.718L35.431,171.718C24.505,171.718 14.362,176.583 7.601,185.066C0.964,193.394 -1.485,204.1 0.882,214.442L53.539,444.442C57.216,460.502 71.423,471.718 88.088,471.718L423.912,471.718C440.577,471.718 454.784,460.502 458.461,444.442L511.118,214.441C513.485,204.099 511.036,193.393 504.399,185.065ZM423.912,441.717L88.088,441.717C85.541,441.717 83.31,440.047 82.783,437.745L30.126,207.747C29.713,205.942 30.406,204.584 31.062,203.763C31.67,202.999 33.047,201.718 35.431,201.718L120.934,201.718L117.005,210.715C113.69,218.307 117.156,227.149 124.748,230.465C126.702,231.319 128.738,231.723 130.743,231.723C136.525,231.723 142.035,228.36 144.497,222.723L153.67,201.72L358.332,201.72L367.505,222.723C369.967,228.361 375.477,231.723 381.259,231.723C383.263,231.723 385.3,231.319 387.254,230.465C394.846,227.15 398.313,218.307 394.997,210.715L391.068,201.718L476.571,201.718C478.955,201.718 480.332,202.999 480.94,203.763C481.595,204.585 482.289,205.943 481.876,207.746L429.219,437.746C428.691,440.047 426.459,441.717 423.912,441.717Z" style="fill:rgb(102,102,102);fill-rule:nonzero;"/>
        <path d="M166,266.717C157.716,266.717 151,273.433 151,281.717L151,391.717C151,400.001 157.716,406.717 166,406.717C174.284,406.717 181,400.001 181,391.717L181,281.717C181,273.433 174.285,266.717 166,266.717Z" style="fill:rgb(102,102,102);fill-rule:nonzero;"/>
        <path d="M256,266.717C247.716,266.717 241,273.433 241,281.717L241,391.717C241,400.001 247.716,406.717 256,406.717C264.284,406.717 271,400.001 271,391.717L271,281.717C271,273.433 264.284,266.717 256,266.717Z" style="fill:rgb(102,102,102);fill-rule:nonzero;"/>
        <path d="M346,266.717C337.716,266.717 331,273.433 331,281.717L331,391.717C331,400.001 337.716,406.717 346,406.717C354.284,406.717 361,400.001 361,391.717L361,281.717C360.999,273.433 354.284,266.717 346,266.717Z" style="fill:rgb(102,102,102);fill-rule:nonzero;"/>
    </g>
</svg>
