<?xml version="1.0" encoding="UTF-8" standalone="no"?>
<!DOCTYPE svg PUBLIC "-//W3C//DTD SVG 1.1//EN" "http://www.w3.org/Graphics/SVG/1.1/DTD/svg11.dtd">
<svg width="100%" height="100%" viewBox="0 0 22 22" version="1.1" xmlns="http://www.w3.org/2000/svg" xmlns:xlink="http://www.w3.org/1999/xlink" xml:space="preserve" xmlns:serif="http://www.serif.com/" style="fill-rule:evenodd;clip-rule:evenodd;stroke-linejoin:round;stroke-miterlimit:2;">
    <g transform="matrix(0.0410156,0,0,0.0410156,0.5,0.5)">
        <path d="M199.945,359.898L267.926,359.898L267.926,399.887L199.945,399.887L199.945,359.898ZM124.965,354.902C111.16,354.902 99.973,366.09 99.973,379.895C99.973,393.695 111.16,404.887 124.965,404.887C138.77,404.887 149.957,393.695 149.957,379.895C149.957,366.09 138.77,354.902 124.965,354.902ZM401.887,232.934L199.945,232.934L199.945,272.922L401.887,272.922L401.887,232.934ZM124.965,227.937C111.16,227.937 99.973,239.125 99.973,252.93C99.973,266.734 111.16,277.922 124.965,277.922C138.77,277.922 149.957,266.734 149.957,252.93C149.957,239.125 138.77,227.938 124.965,227.938ZM401.887,112.969L199.945,112.969L199.945,152.957L401.887,152.957L401.887,112.969ZM124.965,107.969C111.16,107.969 99.973,119.16 99.973,132.961C99.973,146.766 111.16,157.957 124.965,157.957C138.77,157.957 149.957,146.766 149.957,132.961C149.957,119.16 138.77,107.969 124.965,107.969ZM39.988,451.875L39.988,59.984C39.988,48.957 48.957,39.988 59.984,39.988L451.875,39.988C462.898,39.988 471.867,48.957 471.867,59.984L471.867,285.922L511.855,285.922L511.855,59.984C511.855,26.91 484.949,0 451.875,0L59.984,0C26.91,0 0,26.91 0,59.984L0,451.875C0,484.949 26.91,511.855 59.984,511.855L290.918,511.855L290.918,471.867L59.984,471.867C48.957,471.867 39.988,462.898 39.988,451.875ZM483.723,512L443.902,472.18C430.43,480.23 414.691,484.863 397.891,484.863C348.277,484.863 307.914,444.5 307.914,394.891C307.914,345.277 348.277,304.914 397.891,304.914C447.5,304.914 487.863,345.277 487.863,394.891C487.863,413.246 482.332,430.332 472.859,444.582L512,483.723L483.723,512ZM397.891,444.875C425.453,444.875 447.875,422.453 447.875,394.891C447.875,367.328 425.453,344.902 397.891,344.902C370.328,344.902 347.902,367.328 347.902,394.891C347.902,422.453 370.328,444.875 397.891,444.875Z" style="fill:white;fill-rule:nonzero;"/>
    </g>
</svg>
