<?xml version="1.0" encoding="UTF-8" standalone="no"?>
<!DOCTYPE svg PUBLIC "-//W3C//DTD SVG 1.1//EN" "http://www.w3.org/Graphics/SVG/1.1/DTD/svg11.dtd">
<svg width="100%" height="100%" viewBox="0 0 22 22" version="1.1" xmlns="http://www.w3.org/2000/svg" xmlns:xlink="http://www.w3.org/1999/xlink" xml:space="preserve" xmlns:serif="http://www.serif.com/" style="fill-rule:evenodd;clip-rule:evenodd;stroke-linejoin:round;stroke-miterlimit:2;">
    <g id="Forma-1" serif:id="Forma 1" transform="matrix(1,0,0,1,-21.4776,-360.027)">
        <path d="M34.243,363.661L31.53,364.192C31.157,364.265 30.792,364.028 30.718,363.662C30.643,363.296 30.885,362.94 31.26,362.867L35.519,362.033C35.894,361.96 36.257,362.197 36.332,362.563L37.184,366.732C37.259,367.098 37.016,367.454 36.642,367.527C36.596,367.536 36.551,367.54 36.506,367.54C36.183,367.54 35.895,367.318 35.829,366.997L35.324,364.525C31.586,370.36 25.371,371.861 23.382,372.2L23.382,378.648L24.257,378.648L24.257,375.719C24.257,375.347 24.564,375.045 24.947,375.043L28.47,375.043C28.854,375.045 29.161,375.347 29.161,375.719L29.161,378.648L30.289,378.648L30.289,373.015C30.289,372.643 30.597,372.341 30.98,372.339L34.503,372.339C34.887,372.341 35.194,372.643 35.194,373.015L35.194,378.648L36.322,378.648L36.322,369.095C36.322,368.722 36.63,368.421 37.013,368.419L40.536,368.419C40.92,368.421 41.227,368.722 41.227,369.095L41.227,378.648L42.309,378.648C42.693,378.65 43,378.952 43,379.324C43,379.696 42.693,379.998 42.309,380L22.691,380C22.309,380 22,379.697 22,379.324L22,366.616C22,366.243 22.309,365.94 22.691,365.94C23.072,365.94 23.382,366.243 23.382,366.616L23.382,370.819C25.402,370.419 30.964,368.876 34.243,363.661ZM37.704,369.77L37.704,378.648L39.845,378.648L39.845,369.77L37.704,369.77ZM31.671,373.691L31.671,378.648L33.812,378.648L33.812,373.691L31.671,373.691ZM25.638,376.395L25.638,378.648L27.78,378.648L27.78,376.395L25.638,376.395Z" style="fill:white;"/>
    </g>
</svg>
