<?xml version="1.0" encoding="UTF-8" standalone="no"?>
<!DOCTYPE svg PUBLIC "-//W3C//DTD SVG 1.1//EN" "http://www.w3.org/Graphics/SVG/1.1/DTD/svg11.dtd">
<svg width="100%" height="100%" viewBox="0 0 24 24" version="1.1" xmlns="http://www.w3.org/2000/svg" xmlns:xlink="http://www.w3.org/1999/xlink" xml:space="preserve" xmlns:serif="http://www.serif.com/" style="fill-rule:evenodd;clip-rule:evenodd;stroke-linejoin:round;stroke-miterlimit:2;">
    <g id="Shape-1" serif:id="Shape 1" transform="matrix(0.0469082,0,0,0.0469082,1,0.965476)">
        <path d="M79.493,128.531L289.347,6.222C299.111,0.533 310.519,-1 321.429,1.919C332.39,4.857 341.55,11.933 347.223,21.832L408.44,128.875C430.345,130.639 447.683,148.838 447.683,171.215L447.683,237.206C460.063,241.625 469.001,253.359 469.001,267.252L469.001,331.278C469.001,345.171 460.063,356.905 447.683,361.325L447.683,427.316C447.683,450.857 428.561,470 405.046,470L42.636,470C19.121,470 0,450.856 0,427.316L0,171.215C0,147.687 19.099,128.553 42.636,128.531L79.493,128.531ZM426.364,235.24L426.364,171.215C426.364,159.45 416.798,149.873 405.046,149.873L42.636,149.873C30.885,149.873 21.318,159.45 21.318,171.215L21.318,427.316C21.318,439.08 30.885,448.657 42.636,448.657L405.046,448.657C416.818,448.637 426.364,439.068 426.364,427.316L426.364,363.29L362.41,363.29C327.123,363.271 298.455,334.559 298.455,299.265C298.455,263.971 327.123,235.259 362.41,235.24L426.364,235.24ZM437.024,341.949C442.923,341.931 447.683,337.154 447.683,331.278L447.683,267.252C447.683,261.364 442.904,256.581 437.024,256.581L362.41,256.581C338.894,256.581 319.773,275.725 319.773,299.265C319.773,322.806 338.895,341.949 362.41,341.949L437.024,341.949ZM362.41,277.924C350.658,277.924 341.092,287.5 341.092,299.265C341.092,311.03 350.658,320.607 362.41,320.607C374.161,320.607 383.727,311.03 383.727,299.265C383.728,287.5 374.162,277.924 362.41,277.924ZM383.668,128.531L360.443,87.919L290.763,128.531L383.668,128.531ZM248.394,128.531L349.851,69.398L339.329,51L206.311,128.531L248.394,128.531ZM163.944,128.531L328.737,32.48L328.715,32.441C325.894,27.512 321.356,23.989 315.912,22.531C310.529,21.092 304.898,21.842 300.079,24.667L121.863,128.531L163.944,128.531Z" style="fill:rgb(151,151,151);"/>
    </g>
</svg>
