<?xml version="1.0" encoding="UTF-8" standalone="no"?>
<!DOCTYPE svg PUBLIC "-//W3C//DTD SVG 1.1//EN" "http://www.w3.org/Graphics/SVG/1.1/DTD/svg11.dtd">
<svg width="100%" height="100%" viewBox="0 0 24 24" version="1.1" xmlns="http://www.w3.org/2000/svg" xmlns:xlink="http://www.w3.org/1999/xlink" xml:space="preserve" xmlns:serif="http://www.serif.com/" style="fill-rule:evenodd;clip-rule:evenodd;stroke-linejoin:round;stroke-miterlimit:2;">
    <g id="Forma-1" serif:id="Forma 1" transform="matrix(1.22262,0,0,1.22262,-1688.66,-820.603)">
        <path d="M1399.88,680.65C1399.72,680.43 1395.89,675.269 1391,675.269C1386.11,675.269 1382.28,680.43 1382.12,680.65C1381.96,680.858 1381.96,681.141 1382.12,681.35C1382.28,681.569 1386.11,686.73 1391,686.73C1395.89,686.73 1399.72,681.569 1399.88,681.35C1400.04,681.141 1400.04,680.858 1399.88,680.65ZM1391,685.545C1387.4,685.545 1384.28,682.119 1383.35,681C1384.27,679.879 1387.39,676.455 1391,676.455C1394.6,676.455 1397.72,679.88 1398.65,681C1397.73,682.121 1394.61,685.545 1391,685.545ZM1391,677.443C1389.04,677.443 1387.44,679.039 1387.44,681C1387.44,682.961 1389.04,684.557 1391,684.557C1392.96,684.557 1394.56,682.961 1394.56,681C1394.56,679.039 1392.96,677.443 1391,677.443ZM1391,683.371C1389.69,683.371 1388.63,682.307 1388.63,681C1388.63,679.692 1389.69,678.629 1391,678.629C1392.31,678.629 1393.37,679.692 1393.37,681C1393.37,682.307 1392.31,683.371 1391,683.371Z" style="fill:rgb(151,151,151);"/>
    </g>
</svg>
